<svg xmlns="http://www.w3.org/2000/svg" viewBox="0 0 108 108"><defs><style>.cls-1{opacity:0.2;}.cls-2{fill:#fff;}</style></defs><title>ic_launcher_foreground</title><g id="ic_launcher_foreground"><path class="cls-1" d="M75.16,53l-22,22A10.8,10.8,0,1,1,37.93,59.64L61.79,35.78a6.75,6.75,0,0,1,9.55,9.54L51.29,65.37a2.7,2.7,0,0,1-3.81-3.82L65.61,43.41l-2.86-2.86L44.61,58.69a6.75,6.75,0,0,0,9.55,9.54l20-20A10.8,10.8,0,0,0,58.93,32.91L35.07,56.78a14.85,14.85,0,0,0,21,21L78,55.82Z"/><path class="cls-2" d="M75.16,50l-22,22A10.8,10.8,0,1,1,37.93,56.64L61.79,32.78a6.75,6.75,0,0,1,9.55,9.54l-20.05,20a2.7,2.7,0,0,1-3.81-3.82L65.61,40.41l-2.86-2.86L44.61,55.69a6.75,6.75,0,0,0,9.55,9.54l20-20A10.8,10.8,0,0,0,58.93,29.91L35.07,53.78a14.85,14.85,0,0,0,21,21L78,52.82Z"/></g></svg>