<svg id="ic_launcher" xmlns="http://www.w3.org/2000/svg" viewBox="0 0 48 48"><defs><style>.cls-1{fill:#00c853;}.cls-2{opacity:0.2;}.cls-3{fill:#fff;}</style></defs><title>ic_launcher</title><circle class="cls-1" cx="24" cy="24" r="24"/><path class="cls-2" d="M35.46,23.85,23.75,35.56a5.76,5.76,0,0,1-8.15-8.14L28.33,14.69a3.6,3.6,0,1,1,5.09,5.09L22.73,30.47a1.44,1.44,0,0,1-2-2l9.67-9.67-1.52-1.53-9.68,9.68A3.6,3.6,0,0,0,24.26,32L35,21.31a5.76,5.76,0,0,0-8.15-8.15L14.07,25.89a7.92,7.92,0,0,0,11.2,11.2L37,25.38Z"/><path class="cls-3" d="M35.46,21.85,23.75,33.56a5.76,5.76,0,0,1-8.15-8.14L28.33,12.69a3.6,3.6,0,1,1,5.09,5.09L22.73,28.47a1.44,1.44,0,0,1-2-2l9.67-9.67-1.52-1.53-9.68,9.68A3.6,3.6,0,0,0,24.26,30L35,19.31a5.76,5.76,0,0,0-8.15-8.15L14.07,23.89a7.92,7.92,0,0,0,11.2,11.2L37,23.38Z"/></svg>