<svg id="ic_launcher" xmlns="http://www.w3.org/2000/svg" viewBox="0 0 48 48"><defs><style>.cls-1{fill:#00c853;}.cls-2{opacity:0.2;}.cls-3{fill:#fff;}</style></defs><title>ic_launcher</title><circle class="cls-1" cx="24" cy="24" r="24"/><path class="cls-2" d="M38.23,23.45,23.59,38.09A7.2,7.2,0,0,1,13.41,27.91L29.32,12a4.5,4.5,0,0,1,6.36,6.36L22.32,31.73a1.8,1.8,0,0,1-2.55-2.55L31.86,17.09,30,15.18,17.86,27.27a4.5,4.5,0,0,0,6.37,6.37L37.59,20.27A7.2,7.2,0,0,0,27.41,10.09L11.5,26a9.9,9.9,0,0,0,14,14L40.14,25.36Z"/><path class="cls-3" d="M38.23,21.45,23.59,36.09A7.2,7.2,0,0,1,13.41,25.91L29.32,10a4.5,4.5,0,0,1,6.36,6.36L22.32,29.73a1.8,1.8,0,0,1-2.55-2.55L31.86,15.09,30,13.18,17.86,25.27a4.5,4.5,0,0,0,6.37,6.37L37.59,18.27A7.2,7.2,0,0,0,27.41,8.09L11.5,24a9.9,9.9,0,0,0,14,14L40.14,23.36Z"/></svg>